<svg width="42" height="31" viewBox="0 0 42 31" fill="none" xmlns="http://www.w3.org/2000/svg">
<path d="M41.334 7.90606C41.334 4.04727 38.0094 0.010049 38.0094 1.22091C38.0094 2.43177 38.6243 18.513 38.6243 18.513L38.0094 29.0291C38.0094 29.7463 38.5908 30.3277 39.308 30.3277C40.0252 30.3277 40.6066 29.7463 40.6066 29.0291L40.2631 18.4527C40.2631 18.4527 41.334 11.7648 41.334 7.90606Z" stroke="#FCC436" stroke-width="0.820339" stroke-miterlimit="10"/>
<mask id="path-2-inside-1_15_661" fill="white">
<path d="M41.334 7.90606C41.334 4.04727 38.0094 0.010049 38.0094 1.22091C38.0094 2.43177 38.6243 18.513 38.6243 18.513L38.0094 29.0291C38.0094 29.7463 38.5908 30.3277 39.308 30.3277C40.0252 30.3277 40.6066 29.7463 40.6066 29.0291L40.2631 18.4527C40.2631 18.4527 41.334 11.7648 41.334 7.90606Z"/>
</mask>
<path d="M38.6243 18.513L42.719 18.7525L42.7306 18.5545L42.723 18.3563L38.6243 18.513ZM38.0094 29.0291L33.9147 28.7897L33.9077 28.9093V29.0291H38.0094ZM40.6066 29.0291H44.7082V28.9626L44.7061 28.896L40.6066 29.0291ZM40.2631 18.4527L36.213 17.8041L36.1508 18.1926L36.1636 18.5858L40.2631 18.4527ZM45.4357 7.90606C45.4357 4.93001 44.2103 2.19834 43.1575 0.500696C42.6399 -0.334076 41.9674 -1.2396 41.206 -1.8956C41 -2.07305 40.6995 -2.30919 40.318 -2.52252C40.0018 -2.69931 39.2572 -3.07562 38.2446 -3.09841C36.9607 -3.12731 35.5381 -2.55825 34.6492 -1.24386C33.9565 -0.219773 33.9077 0.803339 33.9077 1.22091H42.1111C42.1111 1.48712 42.0882 2.39988 41.4443 3.35196C40.604 4.59434 39.253 5.12975 38.06 5.1029C37.1382 5.08215 36.504 4.74358 36.3145 4.6376C36.0595 4.49507 35.9019 4.36278 35.8518 4.31957C35.7137 4.20059 35.8724 4.31851 36.1859 4.82403C36.7954 5.80698 37.2323 7.02332 37.2323 7.90606H45.4357ZM33.9077 1.22091C33.9077 1.92615 34.067 6.3748 34.218 10.4721C34.2949 12.5596 34.3718 14.6089 34.4295 16.1362C34.4583 16.8999 34.4824 17.5332 34.4992 17.9756C34.5076 18.1968 34.5142 18.3703 34.5187 18.4885C34.521 18.5476 34.5227 18.5929 34.5239 18.6234C34.5245 18.6387 34.5249 18.6503 34.5252 18.658C34.5253 18.6619 34.5255 18.6648 34.5255 18.6668C34.5256 18.6678 34.5256 18.6685 34.5256 18.669C34.5256 18.6693 34.5256 18.6695 34.5256 18.6696C34.5256 18.6697 34.5256 18.6698 38.6243 18.513C42.723 18.3563 42.723 18.3563 42.723 18.3561C42.723 18.356 42.723 18.3558 42.723 18.3556C42.723 18.3551 42.723 18.3544 42.7229 18.3534C42.7229 18.3515 42.7227 18.3486 42.7226 18.3447C42.7223 18.337 42.7219 18.3255 42.7213 18.3103C42.7201 18.2799 42.7184 18.2348 42.7161 18.1758C42.7116 18.0579 42.705 17.8847 42.6966 17.6638C42.6798 17.222 42.6558 16.5895 42.627 15.8266C42.5694 14.3008 42.4926 12.2542 42.4158 10.17C42.339 8.08519 42.2622 5.96554 42.2048 4.29279C42.176 3.45592 42.1522 2.73486 42.1356 2.1875C42.1273 1.91347 42.121 1.68748 42.1168 1.51444C42.1147 1.42789 42.1132 1.35827 42.1122 1.30468C42.1117 1.27804 42.1114 1.25735 42.1113 1.24193C42.1111 1.22578 42.1111 1.21959 42.1111 1.22091H33.9077ZM34.5296 18.2736L33.9147 28.7897L42.1041 29.2686L42.719 18.7525L34.5296 18.2736ZM33.9077 29.0291C33.9077 32.0116 36.3255 34.4294 39.308 34.4294V26.226C40.8561 26.226 42.1111 27.481 42.1111 29.0291H33.9077ZM39.308 34.4294C42.2905 34.4294 44.7082 32.0116 44.7082 29.0291H36.5049C36.5049 27.481 37.7599 26.226 39.308 26.226V34.4294ZM44.7061 28.896L44.3627 18.3195L36.1636 18.5858L36.507 29.1622L44.7061 28.896ZM40.2631 18.4527C44.3132 19.1012 44.3133 19.101 44.3133 19.1007C44.3133 19.1006 44.3134 19.1004 44.3134 19.1002C44.3135 19.0997 44.3136 19.0992 44.3137 19.0985C44.3139 19.0972 44.3141 19.0955 44.3145 19.0934C44.3152 19.0892 44.3161 19.0834 44.3172 19.076C44.3196 19.0613 44.3229 19.0402 44.3272 19.0132C44.3357 18.9591 44.3478 18.881 44.3632 18.7812C44.3939 18.5817 44.4373 18.2951 44.4891 17.9403C44.5926 17.2316 44.7307 16.2451 44.869 15.1322C45.1384 12.9645 45.4357 10.1099 45.4357 7.90606H37.2323C37.2323 9.56101 36.9942 11.9797 36.7282 14.1206C36.5988 15.162 36.4691 16.0887 36.3719 16.7545C36.3233 17.0869 36.283 17.353 36.2551 17.5343C36.2412 17.6249 36.2304 17.6943 36.2232 17.74C36.2196 17.7629 36.2169 17.7799 36.2152 17.7907C36.2143 17.7961 36.2137 17.7999 36.2134 17.8022C36.2132 17.8033 36.2131 17.804 36.213 17.8044C36.213 17.8045 36.213 17.8046 36.213 17.8046C36.213 17.8045 36.213 17.8044 36.213 17.8044C36.213 17.8043 36.213 17.8041 40.2631 18.4527Z" fill="#FCC436" mask="url(#path-2-inside-1_15_661)"/>
<path d="M5.81844 1.70129C5.81844 1.70129 5.89084 4.40104 5.89084 6.9643C5.89084 8.88678 5.30693 10.0941 4.4748 10.5776L4.49331 29.0292C4.49331 29.7464 3.91193 30.3277 3.19473 30.3277C2.47752 30.3277 1.89615 29.7464 1.89615 29.0292L2.42259 10.5814C1.58696 10.1004 1 8.89178 1 6.9643C1 4.40104 1.0724 1.70129 1.0724 1.70129" stroke="#FCC436" stroke-width="1.29858" stroke-miterlimit="10" stroke-linecap="round" stroke-linejoin="round"/>
<path d="M3.44543 1.70129V7.92467" stroke="#FCC436" stroke-width="1.29858" stroke-miterlimit="10" stroke-linecap="round" stroke-linejoin="round"/>
<path d="M21.7772 28.5604C28.9341 28.5604 34.7359 22.7586 34.7359 15.6017C34.7359 8.44476 28.9341 2.64294 21.7772 2.64294C14.6203 2.64294 8.81848 8.44476 8.81848 15.6017C8.81848 22.7586 14.6203 28.5604 21.7772 28.5604Z" stroke="#FCC436" stroke-width="2.46102" stroke-miterlimit="10" stroke-linecap="round" stroke-linejoin="round"/>
<path d="M21.7799 23.5172C26.1366 23.5172 29.6684 19.9854 29.6684 15.6287C29.6684 11.2719 26.1366 7.74011 21.7799 7.74011C17.4232 7.74011 13.8914 11.2719 13.8914 15.6287C13.8914 19.9854 17.4232 23.5172 21.7799 23.5172Z" fill="#FCC436"/>
</svg>
